<svg width="121" height="120" viewBox="0 0 121 120" fill="none" xmlns="http://www.w3.org/2000/svg">
<g clip-path="url(#clip0_801_57002)">
<rect width="120" height="120" transform="translate(0.5)" fill="#FCFCFC"/>
<path d="M65.8905 23.921L23.9062 46.9749L60.4999 67.0689L102.484 44.015L65.8905 23.921Z" fill="#9DBCFF"/>
<path d="M25.1257 95.0858L60.5255 114.524V67.0679L25.1257 47.6295V95.0858Z" fill="#F3F7FF"/>
<path d="M103.843 90.8671V45.9907L78.3125 80.4786L69.4063 76.1426L69.4319 109.763L103.843 90.8671Z" fill="#E5E9ED"/>
<path d="M67.2969 64.0209L81.168 77.8911L118.156 57.5811L104.285 43.7108L67.2969 64.0209Z" fill="#F3F7FF"/>
<path d="M9.09406 60.7058L46.3853 81.1825L60.5 67.0678L23.2087 46.5911L9.09406 60.7058Z" fill="#F3F7FF"/>
<path d="M103.843 43.2686L118.062 29.0514L81.3759 8.90616L67.1568 23.1252L103.843 43.2686Z" fill="#F3F7FF"/>
<path d="M10.5781 25.9093L24.1169 39.4472L60.5 19.4695L46.9612 5.93161L10.5781 25.9093Z" fill="#F3F7FF"/>
<path d="M107.158 43.2687L119.813 30.6134C120.335 30.0925 120.581 29.3555 120.476 28.6258C120.373 27.8961 119.931 27.2571 119.284 26.9019L104.07 18.5477C102.936 17.9251 101.511 18.3398 100.888 19.4742C100.265 20.6094 100.679 22.034 101.814 22.6566L114.291 29.5075L103.43 40.3674L64.3673 18.9175L75.2273 8.05756L86.2054 14.0863C87.3397 14.7089 88.7652 14.295 89.3878 13.1598C90.0112 12.0255 89.5965 10.6 88.4613 9.97742L75.9414 3.10181C75.0277 2.6001 73.8925 2.76215 73.1564 3.49915L60.5001 16.1554L47.8439 3.49915C47.1069 2.76215 45.9716 2.60102 45.0588 3.10181L1.71595 26.9019C1.06958 27.2571 0.627385 27.8952 0.52393 28.6258C0.41956 29.3555 0.664921 30.0925 1.18677 30.6134L13.8421 43.2687L1.18677 55.9232C0.664921 56.445 0.41956 57.1811 0.52393 57.9117C0.627385 58.6414 1.06958 59.2804 1.71595 59.6347L14.8135 66.8271V90.867C14.8135 91.723 15.2795 92.5104 16.0293 92.9224L59.3722 116.721C59.7238 116.915 60.1119 117.011 60.5001 117.011C60.8883 117.011 61.2765 116.915 61.6281 116.721L104.971 92.9224C105.721 92.5104 106.187 91.723 106.187 90.867V66.8271L119.284 59.6356C119.931 59.2804 120.373 58.6414 120.476 57.9117C120.581 57.182 120.335 56.445 119.813 55.9241L107.158 43.2687ZM60.5001 64.3936L22.0269 43.2678L60.5001 22.1411L98.9733 43.2678L60.5001 64.3936ZM45.7739 8.05756L56.6329 18.9175L17.5701 40.3674L6.71015 29.5075L45.7739 8.05756ZM17.572 46.1691L56.6348 67.619L45.7739 78.4799L6.71015 57.03L17.572 46.1691ZM101.499 89.4809L62.8439 110.706V86.748C62.8439 85.4535 61.7947 84.4043 60.5001 84.4043C59.2056 84.4043 58.1564 85.4535 58.1564 86.748V110.706L19.501 89.4809V69.4016L45.0588 83.4357C45.4132 83.6298 45.8013 83.725 46.1859 83.725C46.7929 83.725 47.3934 83.4888 47.8439 83.0383L60.5001 70.3821L73.1564 83.0383C73.6068 83.4897 74.2074 83.725 74.8144 83.725C75.1989 83.725 75.5871 83.6298 75.9414 83.4357L101.499 69.4016V89.4809ZM75.2273 78.4799L64.3664 67.6181L103.429 46.1691L114.291 57.0291L75.2273 78.4799Z" fill="#D8E4FF"/>
<path d="M95.3751 18.7914C95.9913 18.7914 96.5937 18.5405 97.0322 18.1038C97.468 17.668 97.7189 17.0638 97.7189 16.4476C97.7189 15.8306 97.468 15.2263 97.0322 14.7905C96.5965 14.3538 95.9913 14.1039 95.3751 14.1039C94.7562 14.1039 94.1538 14.3538 93.718 14.7905C93.2795 15.2263 93.0314 15.8306 93.0314 16.4476C93.0314 17.0638 93.2795 17.668 93.718 18.1038C94.1538 18.5405 94.759 18.7914 95.3751 18.7914Z" fill="#D8E4FF"/>
<path d="M60.5001 76.6232C59.8839 76.6232 59.2787 76.8731 58.8429 77.3098C58.4072 77.7474 58.1563 78.3499 58.1563 78.9669C58.1563 79.5849 58.4072 80.1873 58.8429 80.6259C59.2787 81.0616 59.8839 81.3107 60.5001 81.3107C61.1162 81.3107 61.7214 81.0616 62.1572 80.6259C62.5929 80.1873 62.8438 79.5849 62.8438 78.9669C62.8438 78.3499 62.5929 77.7474 62.1572 77.3098C61.7214 76.8731 61.1162 76.6232 60.5001 76.6232Z" fill="#D8E4FF"/>
</g>
<defs>
<clipPath id="clip0_801_57002">
<rect width="120" height="120" fill="white" transform="translate(0.5)"/>
</clipPath>
</defs>
</svg>
