<svg width="26" height="27" viewBox="0 0 26 27" fill="none" xmlns="http://www.w3.org/2000/svg">
<path d="M12.9574 26.5C6.72446 26.5 0 22.4302 0 13.5C0 4.56977 6.72446 0.5 12.9574 0.5C16.4202 0.5 19.6149 1.68605 21.983 3.84884C24.5521 6.22093 25.9149 9.56977 25.9149 13.5C25.9149 17.4302 24.5521 20.7558 21.983 23.1279C19.6104 25.2907 16.3979 26.5 12.9574 26.5Z" fill="url(#paint0_radial_225_5150)"/>
<path d="M8.66321 8.39307C7.72715 8.39307 6.87598 9.21632 6.87598 10.5838C6.87598 11.9512 7.72715 12.7721 8.66321 12.7721C9.60151 12.7721 10.4504 11.9489 10.4504 10.5838C10.4504 9.21865 9.61044 8.39307 8.66321 8.39307Z" fill="#422B0D"/>
<path d="M8.5851 9.30699C8.26787 9.14885 7.88585 9.28839 7.7317 9.61862C7.61329 9.87676 7.66691 10.1861 7.86574 10.3861C8.18297 10.5442 8.56499 10.4047 8.71914 10.0744C8.83755 9.8163 8.78393 9.50699 8.5851 9.30699Z" fill="#896024"/>
<path d="M17.2423 8.39307C16.3062 8.39307 15.4551 9.21632 15.4551 10.5838C15.4551 11.9512 16.3062 12.7721 17.2423 12.7721C18.1784 12.7721 19.0295 11.9489 19.0295 10.5838C19.0295 9.21865 18.1784 8.39307 17.2423 8.39307Z" fill="#422B0D"/>
<path d="M17.1535 9.30699C16.8362 9.14885 16.4542 9.28839 16.3001 9.61862C16.1817 9.87676 16.2353 10.1861 16.4341 10.3861C16.7513 10.5442 17.1334 10.4047 17.2875 10.0744C17.4059 9.8163 17.3523 9.50699 17.1535 9.30699Z" fill="#896024"/>
<path d="M23.7418 5.77209C24.9325 7.77209 25.5536 10.1535 25.5536 12.8023C25.5536 16.7326 24.1908 20.0581 21.6216 22.4302C19.2536 24.593 16.0365 25.8023 12.5961 25.8023C8.56145 25.8023 4.33018 24.093 1.83252 20.4674C4.23635 24.5744 8.75804 26.5 13.0429 26.5C16.4834 26.5 19.7004 25.2907 22.0685 23.1279C24.6376 20.7558 26.0004 17.4302 26.0004 13.5C26.0004 10.5372 25.2252 7.90465 23.7418 5.77209Z" fill="#EB8F00"/>
<path d="M21.6369 15.5279C21.3241 14.9395 20.645 14.6814 20.0418 14.9186C17.7496 15.6139 15.3726 15.9604 12.9844 15.9488C10.5962 15.9604 8.21922 15.6139 5.9271 14.9186C5.32614 14.6814 4.64699 14.9372 4.33423 15.5232C4.0304 16.1069 4.24934 16.7837 4.50625 17.3674C5.9405 20.6465 9.10167 22.6093 12.9666 22.6209H13.0023C16.8672 22.6209 20.0284 20.6465 21.4648 17.3674C21.7195 16.779 21.9407 16.1116 21.6369 15.5279Z" fill="#422B0D"/>
<path d="M16.5612 21.6953C16.4786 21.6163 16.3937 21.5442 16.3088 21.4628C15.3973 20.6279 14.2177 20.1791 13.0024 20.2046C11.7513 20.1837 10.5338 20.6163 9.5575 21.4302C9.47261 21.5023 9.38325 21.5721 9.30059 21.6628C9.21793 21.7535 9.17325 21.8186 9.11963 21.8953C10.3484 22.3953 11.6575 22.6512 12.9778 22.6442H13.0136C14.278 22.6442 15.5313 22.4093 16.7154 21.9465C16.6707 21.8581 16.6193 21.7744 16.5612 21.6953Z" fill="#ED7770"/>
<path d="M20.0422 14.9186C17.7501 15.6139 15.3731 15.9604 12.9849 15.9488C10.5967 15.9604 8.21969 15.6139 5.92757 14.9186C5.32661 14.6814 4.64747 14.9372 4.3347 15.5232C4.29002 15.6116 4.25427 15.7046 4.23193 15.8C4.30566 15.8395 4.39055 15.879 4.49108 15.9209C7.18087 17.3232 10.1544 18.0349 13.1614 17.9977C16.0455 18.0325 18.8962 17.379 21.5011 16.0907C21.6061 16.0442 21.6932 16 21.7714 15.9581C21.7535 15.807 21.7066 15.6581 21.6373 15.5232C21.3246 14.9372 20.6454 14.679 20.0422 14.9186Z" fill="white"/>
<path d="M21.6458 15.5302C21.3286 14.9418 20.6472 14.6814 20.0395 14.9186C17.7474 15.6139 15.3704 15.9604 12.9844 15.9488C10.5962 15.9604 8.21923 15.6139 5.9271 14.9186C5.32614 14.6814 4.64699 14.9372 4.33423 15.5232C4.0304 16.1069 4.24934 16.7837 4.50625 17.3674C4.62019 17.6302 4.74753 17.8883 4.88827 18.1372C4.88827 18.1372 4.41912 16.3279 4.82572 15.8023C4.96423 15.579 5.19657 15.4395 5.45125 15.4256C5.55625 15.4256 5.65901 15.4442 5.75955 15.4767C8.09188 16.1907 10.5114 16.5511 12.9442 16.5465H13.0224C15.4553 16.5511 17.8747 16.1907 20.2071 15.4767C20.3076 15.4442 20.4104 15.4256 20.5154 15.4256C20.7701 15.4395 21.0046 15.579 21.1431 15.8023C21.5564 16.3279 21.0806 18.1442 21.0806 18.1442C21.2191 17.8953 21.3576 17.6395 21.4738 17.3744C21.7285 16.7907 21.9496 16.1163 21.6458 15.5302Z" fill="#EB8F00"/>
<defs>
<radialGradient id="paint0_radial_225_5150" cx="0" cy="0" r="1" gradientUnits="userSpaceOnUse" gradientTransform="translate(12.9574 13.5) scale(12.725 13.2464)">
<stop offset="0.5" stop-color="#FDE030"/>
<stop offset="0.92" stop-color="#F7C02B"/>
<stop offset="1" stop-color="#F4A223"/>
</radialGradient>
</defs>
</svg>
