<svg width="26" height="27" viewBox="0 0 26 27" fill="none" xmlns="http://www.w3.org/2000/svg">
<path d="M12.9998 26.5C6.74645 26.5 0 22.4302 0 13.5C0 4.56977 6.74645 0.5 12.9998 0.5C16.4739 0.5 19.679 1.68605 22.0548 3.84884C24.6324 6.22093 25.9996 9.56977 25.9996 13.5C25.9996 17.4302 24.6324 20.7558 22.0548 23.1279C19.679 25.2907 16.4515 26.5 12.9998 26.5Z" fill="url(#paint0_radial_225_5130)"/>
<path d="M23.7343 5.77209C24.9289 7.77209 25.552 10.1535 25.552 12.8023C25.552 16.7326 24.1848 20.0581 21.6073 22.4302C19.2314 24.593 16.0039 25.8023 12.5522 25.8023C8.50435 25.8023 4.25924 24.093 1.75342 20.4674C4.16511 24.5744 8.70159 26.5 13.0005 26.5C16.4522 26.5 19.6797 25.2907 22.0555 23.1279C24.6331 20.7558 26.0003 17.4302 26.0003 13.5C26.0003 10.5372 25.2226 7.90465 23.7343 5.77209Z" fill="#EB8F00"/>
<path d="M18.6926 19.3373H7.48589C6.99056 19.3373 6.58936 18.921 6.58936 18.407C6.58936 17.8931 6.99056 17.4768 7.48589 17.4768H18.6926C19.188 17.4768 19.5892 17.8931 19.5892 18.407C19.5892 18.921 19.188 19.3373 18.6926 19.3373Z" fill="#422B0D"/>
<path d="M8.75743 9.55579C7.81831 9.55579 6.96436 10.379 6.96436 11.7465C6.96436 13.1139 7.81831 13.9349 8.75743 13.9349C9.69656 13.9349 10.5505 13.1116 10.5505 11.7465C10.5505 10.3814 9.69656 9.55579 8.75743 9.55579Z" fill="#422B0D"/>
<path d="M8.66964 10.4697C8.35137 10.3116 7.9681 10.4511 7.81344 10.7813C7.69465 11.0395 7.74844 11.3488 7.94792 11.5488C8.2662 11.7069 8.64947 11.5674 8.80412 11.2372C8.92291 10.979 8.86912 10.6697 8.66964 10.4697Z" fill="#896024"/>
<path d="M17.3478 9.55579C16.4086 9.55579 15.5547 10.379 15.5547 11.7465C15.5547 13.1139 16.4086 13.9349 17.3478 13.9349C18.2869 13.9349 19.1408 13.1116 19.1408 11.7465C19.1408 10.3814 18.2914 9.55579 17.3478 9.55579Z" fill="#422B0D"/>
<path d="M17.2644 10.4697C16.9461 10.3116 16.5628 10.4511 16.4082 10.7813C16.2894 11.0395 16.3432 11.3488 16.5427 11.5488C16.8609 11.7069 17.2442 11.5674 17.3988 11.2372C17.5176 10.979 17.4638 10.6697 17.2644 10.4697Z" fill="#896024"/>
<defs>
<radialGradient id="paint0_radial_225_5130" cx="0" cy="0" r="1" gradientUnits="userSpaceOnUse" gradientTransform="translate(12.9998 13.5) scale(12.7666 13.2464)">
<stop offset="0.5" stop-color="#FDE030"/>
<stop offset="0.92" stop-color="#F7C02B"/>
<stop offset="1" stop-color="#F4A223"/>
</radialGradient>
</defs>
</svg>
