<svg width="26" height="26" viewBox="0 0 26 26" fill="none" xmlns="http://www.w3.org/2000/svg">
<path d="M13 26C6.74655 26 0 21.9302 0 13C0 4.06977 6.74655 0 13 0C16.4741 0 19.6793 1.18605 22.0552 3.34884C24.6328 5.72093 26 9.06977 26 13C26 16.9302 24.6328 20.2558 22.0552 22.6279C19.6793 24.7907 16.4517 26 13 26Z" fill="url(#paint0_radial_225_5119)"/>
<path d="M23.7336 5.27209C24.9283 7.27209 25.5514 9.65349 25.5514 12.3023C25.5514 16.2326 24.1842 19.5581 21.6066 21.9302C19.2307 24.093 16.0031 25.3023 12.5514 25.3023C8.50348 25.3023 4.2583 23.593 1.75244 19.9674C4.16417 24.0744 8.70072 26 12.9997 26C16.4514 26 19.679 24.7907 22.0549 22.6279C24.6324 20.2558 25.9997 16.9302 25.9997 13C25.9997 10.0372 25.2219 7.40465 23.7336 5.27209Z" fill="#D84213"/>
<path d="M17.5591 22.3582C17.4829 22.328 17.4135 22.2792 17.3597 22.214C15.1788 19.8629 11.5724 19.7908 9.30639 22.0536C9.25484 22.1071 9.20104 22.1605 9.15173 22.214C9.09794 22.2792 9.02846 22.328 8.95225 22.3582C8.78415 22.4233 8.59363 22.3861 8.45915 22.2629C8.32691 22.1419 8.28208 21.9489 8.34932 21.7792C9.01725 20.0001 11.0031 18.6047 13.2557 18.6047C15.5083 18.6047 17.4941 20.0001 18.1621 21.7768C18.2293 21.9466 18.1845 22.1396 18.0522 22.2606C17.9178 22.3838 17.7273 22.421 17.5591 22.3582Z" fill="#422B0D"/>
<path d="M11.7757 14.3768C11.2736 13.721 9.20479 12.4605 8.45841 12.0931C8.18048 11.9605 7.89134 11.8535 7.59548 11.7745C7.54169 11.7582 7.48341 11.7512 7.42737 11.7512C7.12927 11.7582 6.87375 11.9791 6.81324 12.2838C6.74375 12.6001 6.90065 12.9256 7.18755 13.0559C7.53944 13.2349 8.15358 13.5745 8.79013 13.9489C8.25893 14.2768 7.93393 14.8722 7.93393 15.514V15.8535C7.93393 16.8163 8.68703 17.5977 9.61496 17.5977C10.5429 17.5977 11.296 16.8163 11.296 15.8535V15.514C11.296 15.5001 11.296 15.4884 11.296 15.4745C11.5358 15.4582 11.751 15.3094 11.8563 15.0861C11.9662 14.8535 11.9348 14.5768 11.7757 14.3768Z" fill="#422B0D"/>
<path d="M19.7061 12.2838C19.6434 11.9768 19.3834 11.7582 19.0808 11.7559C19.0248 11.7559 18.9665 11.7628 18.9127 11.7791C18.6168 11.8559 18.3277 11.9628 18.0498 12.0931C17.3034 12.4559 15.2346 13.721 14.7325 14.3721C14.5734 14.5745 14.5465 14.8535 14.6586 15.0861C14.7661 15.3117 14.9791 15.4582 15.2211 15.4745V15.514V15.8535C15.2211 16.8163 15.9743 17.5977 16.9022 17.5977C17.8301 17.5977 18.5832 16.8163 18.5832 15.8535V15.514C18.5832 14.8745 18.2582 14.2814 17.7293 13.9535C18.3658 13.5791 18.9799 13.2396 19.3318 13.0605C19.621 12.9303 19.7801 12.6024 19.7061 12.2838Z" fill="#422B0D"/>
<path d="M9.53049 14.2906C9.21222 14.1325 8.82894 14.272 8.67428 14.6023C8.55549 14.8604 8.60928 15.1697 8.80877 15.3697C9.12704 15.5278 9.51032 15.3883 9.66497 15.0581C9.78377 14.7999 9.72997 14.4906 9.53049 14.2906Z" fill="#896024"/>
<path d="M16.8171 14.2906C16.4988 14.1325 16.1156 14.272 15.9609 14.6023C15.8421 14.8604 15.8959 15.1697 16.0954 15.3697C16.4137 15.5278 16.7969 15.3883 16.9516 15.0581C17.0704 14.7999 17.0166 14.4906 16.8171 14.2906Z" fill="#896024"/>
<defs>
<radialGradient id="paint0_radial_225_5119" cx="0" cy="0" r="1" gradientUnits="userSpaceOnUse" gradientTransform="translate(13 13) scale(12.7668 13.2464)">
<stop offset="0.12" stop-color="#FAC742"/>
<stop offset="0.32" stop-color="#FAC440"/>
<stop offset="0.48" stop-color="#FBBA3B"/>
<stop offset="0.62" stop-color="#FBA931"/>
<stop offset="0.76" stop-color="#FC9224"/>
<stop offset="0.88" stop-color="#FE7413"/>
<stop offset="1" stop-color="#FF5100"/>
</radialGradient>
</defs>
</svg>
