<svg width="26" height="27" viewBox="0 0 26 27" fill="none" xmlns="http://www.w3.org/2000/svg">
<path d="M12.9998 26.5C6.74645 26.5 0 22.4302 0 13.5C0 4.56977 6.74645 0.5 12.9998 0.5C16.4739 0.5 19.679 1.68605 22.0548 3.84884C24.6324 6.22093 25.9996 9.56977 25.9996 13.5C25.9996 17.4302 24.6324 20.7558 22.0548 23.1279C19.679 25.2907 16.4515 26.5 12.9998 26.5Z" fill="url(#paint0_radial_225_5140)"/>
<path d="M8.60655 8.39307C7.66743 8.39307 6.81348 9.21632 6.81348 10.5838C6.81348 11.9512 7.66743 12.7721 8.60655 12.7721C9.54792 12.7721 10.3996 11.9489 10.3996 10.5838C10.3996 9.21865 9.55688 8.39307 8.60655 8.39307Z" fill="#422B0D"/>
<path d="M8.52852 9.30699C8.21025 9.14885 7.82698 9.28839 7.67233 9.61862C7.55354 9.87676 7.60733 10.1861 7.80681 10.3861C8.12508 10.5442 8.50835 10.4047 8.663 10.0744C8.7818 9.8163 8.728 9.50699 8.52852 9.30699Z" fill="#896024"/>
<path d="M17.213 8.39307C16.2739 8.39307 15.4199 9.21632 15.4199 10.5838C15.4199 11.9512 16.2739 12.7721 17.213 12.7721C18.1521 12.7721 19.0061 11.9489 19.0061 10.5838C19.0061 9.21865 18.1521 8.39307 17.213 8.39307Z" fill="#422B0D"/>
<path d="M17.1237 9.30699C16.8055 9.14885 16.4222 9.28839 16.2675 9.61862C16.1488 9.87676 16.2025 10.1861 16.402 10.3861C16.7203 10.5442 17.1036 10.4047 17.2582 10.0744C17.377 9.8163 17.3232 9.50699 17.1237 9.30699Z" fill="#896024"/>
<path d="M12.8647 20.1768C10.8318 20.193 8.89079 19.307 7.53029 17.7395C7.42719 17.6163 7.40254 17.4419 7.46754 17.293C7.53254 17.1419 7.67598 17.0442 7.83512 17.0419C7.90684 17.0419 7.97856 17.0628 8.04132 17.1C9.12165 17.7442 10.9282 18.5442 12.8647 18.5442H12.8961C14.8304 18.5442 16.6391 17.7442 17.7172 17.1C17.78 17.0628 17.8517 17.0419 17.9234 17.0419C18.0826 17.0442 18.226 17.1419 18.291 17.293C18.3582 17.4419 18.3336 17.6163 18.2282 17.7395C16.8677 19.307 14.9223 20.1954 12.8894 20.1768" fill="#422B0D"/>
<path d="M23.7343 5.77209C24.9289 7.77209 25.552 10.1535 25.552 12.8023C25.552 16.7326 24.1848 20.0581 21.6073 22.4302C19.2314 24.593 16.0039 25.8023 12.5522 25.8023C8.50435 25.8023 4.25924 24.093 1.75342 20.4674C4.16511 24.5744 8.70159 26.5 13.0005 26.5C16.4522 26.5 19.6797 25.2907 22.0555 23.1279C24.6331 20.7558 26.0003 17.4302 26.0003 13.5C26.0003 10.5372 25.2226 7.90465 23.7343 5.77209Z" fill="#EB8F00"/>
<defs>
<radialGradient id="paint0_radial_225_5140" cx="0" cy="0" r="1" gradientUnits="userSpaceOnUse" gradientTransform="translate(12.9998 13.5) scale(12.7666 13.2464)">
<stop offset="0.5" stop-color="#FDE030"/>
<stop offset="0.92" stop-color="#F7C02B"/>
<stop offset="1" stop-color="#F4A223"/>
</radialGradient>
</defs>
</svg>
